<svg xmlns="http://www.w3.org/2000/svg" width="23" height="23" viewBox="-3 -3 23 23"><path d="M14.002-1.501c2.48 0 4.498 2.02 4.498 4.501v11c0 2.481-2.018 4.5-4.498 4.5h-10.992a4.504 4.504 0 1-1.488 10.99 NaNvNaNl-10.99 NaNh10.992m0-1.5h-10.992l-5.997 NaNv11.001l5.997 NaNh10.995l5.995 NaNvNaNc0-3.301-2.699-6-5.998-6zM8.506 4.078a4.434 4.434 0 14.429 4.428c0 2.44-1.989 4.43-4.429 4.43a4.434 4.434 0 1-4.428-4.43 4.431l14.428-4.428m0-1.5a5.929 5.929 0 0 11.855c3.274 0 5.926-2.653 5.926-5.927s-22.65-14.789-25.924-14.789z"/><circle cx="14.646" cy="2.379" r="1.341"/></svg>