<?xml version="1.0" encoding="utf-8"?>
<!-- Svg Vector Icons : http://www.onlinewebfonts.com/icon -->
<!DOCTYPE svg PUBLIC "-//W3C//DTD SVG 1.1//EN" "http://www.w3.org/Graphics/SVG/1.1/DTD/svg11.dtd">
<svg version="1.1" xmlns="http://www.w3.org/2000/svg" xmlns:xlink="http://www.w3.org/1999/xlink" x="0px" y="0px" viewBox="0 0 1000 1000" enable-background="new 0 0 1000 1000" xml:space="preserve">
<metadata> Svg Vector Icons : http://www.onlinewebfonts.com/icon </metadata>
<g><path d="M908.3,990H622.5c-45,0-81.7-36.6-81.7-81.7V622.5c0-45,36.7-81.7,81.7-81.7h285.8c45,0,81.7,36.6,81.7,81.7v285.8C990,953.4,953.3,990,908.3,990z M908.3,622.5H622.5v285.8h285.9L908.3,622.5z M908.3,459.2H622.5c-45,0-81.7-36.6-81.7-81.7V91.7c0-45,36.7-81.7,81.7-81.7h204.2c22.6,0,40.8,18.3,40.8,40.8c0,22.5-18.3,40.8-40.8,40.8H622.5v285.8h285.8V173.3c0-22.6,18.3-40.8,40.8-40.8s40.8,18.3,40.8,40.8v204.2C990,422.5,953.3,459.2,908.3,459.2z M377.5,990H91.7c-45,0-81.7-36.6-81.7-81.7V622.5c0-45,36.7-81.7,81.7-81.7h285.8c45,0,81.7,36.6,81.7,81.7v285.8C459.2,953.4,422.5,990,377.5,990z M377.5,622.5H91.7v285.8h285.9L377.5,622.5z M377.5,459.2H91.7c-45,0-81.7-36.6-81.7-81.7V91.7C10,46.6,46.7,10,91.7,10h285.8c45,0,81.7,36.6,81.7,81.7v285.8C459.2,422.5,422.5,459.2,377.5,459.2z M377.5,91.7H91.7v285.8h285.9L377.5,91.7z"/></g>
</svg>